<svg id="visual" viewBox="0 0 1440 5000" width="1440" height="5000" xmlns="http://www.w3.org/2000/svg" xmlns:xlink="http://www.w3.org/1999/xlink" version="1.1"><rect x="0" y="0" width="1440" height="5000" fill="#001220"></rect><defs><linearGradient id="grad1_0" x1="0%" y1="100%" x2="100%" y2="0%"><stop offset="30%" stop-color="#ff9b00" stop-opacity="1"></stop><stop offset="70%" stop-color="#ff9b00" stop-opacity="1"></stop></linearGradient></defs><defs><linearGradient id="grad1_1" x1="0%" y1="100%" x2="100%" y2="0%"><stop offset="30%" stop-color="#ff9b00" stop-opacity="1"></stop><stop offset="70%" stop-color="#e75254" stop-opacity="1"></stop></linearGradient></defs><defs><linearGradient id="grad1_2" x1="0%" y1="100%" x2="100%" y2="0%"><stop offset="30%" stop-color="#97386f" stop-opacity="1"></stop><stop offset="70%" stop-color="#e75254" stop-opacity="1"></stop></linearGradient></defs><defs><linearGradient id="grad1_3" x1="0%" y1="100%" x2="100%" y2="0%"><stop offset="30%" stop-color="#97386f" stop-opacity="1"></stop><stop offset="70%" stop-color="#392d58" stop-opacity="1"></stop></linearGradient></defs><defs><linearGradient id="grad1_4" x1="0%" y1="100%" x2="100%" y2="0%"><stop offset="30%" stop-color="#001220" stop-opacity="1"></stop><stop offset="70%" stop-color="#392d58" stop-opacity="1"></stop></linearGradient></defs><defs><linearGradient id="grad2_0" x1="0%" y1="100%" x2="100%" y2="0%"><stop offset="30%" stop-color="#ff9b00" stop-opacity="1"></stop><stop offset="70%" stop-color="#ff9b00" stop-opacity="1"></stop></linearGradient></defs><defs><linearGradient id="grad2_1" x1="0%" y1="100%" x2="100%" y2="0%"><stop offset="30%" stop-color="#e75254" stop-opacity="1"></stop><stop offset="70%" stop-color="#ff9b00" stop-opacity="1"></stop></linearGradient></defs><defs><linearGradient id="grad2_2" x1="0%" y1="100%" x2="100%" y2="0%"><stop offset="30%" stop-color="#e75254" stop-opacity="1"></stop><stop offset="70%" stop-color="#97386f" stop-opacity="1"></stop></linearGradient></defs><defs><linearGradient id="grad2_3" x1="0%" y1="100%" x2="100%" y2="0%"><stop offset="30%" stop-color="#392d58" stop-opacity="1"></stop><stop offset="70%" stop-color="#97386f" stop-opacity="1"></stop></linearGradient></defs><defs><linearGradient id="grad2_4" x1="0%" y1="100%" x2="100%" y2="0%"><stop offset="30%" stop-color="#392d58" stop-opacity="1"></stop><stop offset="70%" stop-color="#001220" stop-opacity="1"></stop></linearGradient></defs><g transform="translate(1440, 5000)"><path d="M-1382 0C-1384.4 -127.7 -1386.9 -255.5 -1332 -356.9C-1277.2 -458.3 -1165 -533.4 -1092.1 -630.5C-1019.1 -727.6 -985.4 -846.7 -905.8 -905.8C-826.3 -964.9 -700.9 -963.9 -611.5 -1059.1C-522.1 -1154.4 -468.6 -1345.9 -372.7 -1390.9C-276.8 -1435.9 -138.4 -1334.5 0 -1233L0 0Z" fill="#15213e"></path><path d="M-1105.6 0C-1107.5 -102.2 -1109.5 -204.4 -1065.6 -285.5C-1021.7 -366.7 -932 -426.7 -873.6 -504.4C-815.3 -582.1 -788.3 -677.4 -724.6 -724.6C-661 -771.9 -560.7 -771.1 -489.2 -847.3C-417.7 -923.5 -374.9 -1076.7 -298.2 -1112.7C-221.4 -1148.8 -110.7 -1067.6 0 -986.4L0 0Z" fill="#673469"></path><path d="M-829.2 0C-830.7 -76.6 -832.1 -153.3 -799.2 -214.1C-766.3 -275 -699 -320 -655.2 -378.3C-611.5 -436.6 -591.2 -508 -543.5 -543.5C-495.8 -578.9 -420.5 -578.3 -366.9 -635.5C-313.3 -692.6 -281.2 -807.6 -223.6 -834.6C-166.1 -861.6 -83 -800.7 0 -739.8L0 0Z" fill="#c43f67"></path><path d="M-552.8 0C-553.8 -51.1 -554.7 -102.2 -532.8 -142.8C-510.9 -183.3 -466 -213.4 -436.8 -252.2C-407.6 -291 -394.1 -338.7 -362.3 -362.3C-330.5 -386 -280.4 -385.6 -244.6 -423.7C-208.8 -461.8 -187.5 -538.4 -149.1 -556.4C-110.7 -574.4 -55.4 -533.8 0 -493.2L0 0Z" fill="#fb7339"></path><path d="M-276.4 0C-276.9 -25.5 -277.4 -51.1 -266.4 -71.4C-255.4 -91.7 -233 -106.7 -218.4 -126.1C-203.8 -145.5 -197.1 -169.3 -181.2 -181.2C-165.3 -193 -140.2 -192.8 -122.3 -211.8C-104.4 -230.9 -93.7 -269.2 -74.5 -278.2C-55.4 -287.2 -27.7 -266.9 0 -246.6L0 0Z" fill="#ff9b00"></path></g><g transform="translate(0, 0)"><path d="M1207 0C1293.4 131.7 1379.9 263.5 1339.7 359C1299.6 454.5 1133 513.7 1054.8 609C976.7 704.3 987 835.6 944 944C901 1052.3 804.6 1137.7 702 1215.9C599.4 1294.1 490.7 1365.1 372.7 1390.9C254.7 1416.8 127.3 1397.4 0 1378L0 0Z" fill="#15213e"></path><path d="M965.6 0C1034.7 105.4 1103.9 210.8 1071.8 287.2C1039.7 363.6 906.4 411 843.9 487.2C781.3 563.4 789.6 668.5 755.2 755.2C720.8 841.9 643.6 910.2 561.6 972.7C479.6 1035.3 392.6 1092.1 298.2 1112.7C203.7 1133.4 101.9 1117.9 0 1102.4L0 0Z" fill="#673469"></path><path d="M724.2 0C776.1 79 827.9 158.1 803.8 215.4C779.8 272.7 679.8 308.2 632.9 365.4C586 422.6 592.2 501.4 566.4 566.4C540.6 631.4 482.7 682.6 421.2 729.5C359.7 776.5 294.4 819.1 223.6 834.6C152.8 850.1 76.4 838.4 0 826.8L0 0Z" fill="#c43f67"></path><path d="M482.8 0C517.4 52.7 551.9 105.4 535.9 143.6C519.9 181.8 453.2 205.5 421.9 243.6C390.7 281.7 394.8 334.3 377.6 377.6C360.4 420.9 321.8 455.1 280.8 486.4C239.8 517.6 196.3 546 149.1 556.4C101.9 566.7 50.9 559 0 551.2L0 0Z" fill="#fb7339"></path><path d="M241.4 0C258.7 26.3 276 52.7 267.9 71.8C259.9 90.9 226.6 102.7 211 121.8C195.3 140.9 197.4 167.1 188.8 188.8C180.2 210.5 160.9 227.5 140.4 243.2C119.9 258.8 98.1 273 74.5 278.2C50.9 283.4 25.5 279.5 0 275.6L0 0Z" fill="#ff9b00"></path></g></svg>