<svg xmlns="http://www.w3.org/2000/svg" version="1.1" xmlns:xlink="http://www.w3.org/1999/xlink" xmlns:svgjs="http://svgjs.dev/svgjs" width="1080" height="1920" preserveAspectRatio="none" viewBox="0 0 1080 1920">
    <g mask="url(&quot;#SvgjsMask1078&quot;)" fill="none">
        <rect width="1080" height="1920" x="0" y="0" fill="rgba(40, 203, 165, 1)"></rect>
        <path d="M0,857.49C158.498,847.716,308.008,765.712,419.29,652.427C519.306,550.61,523.485,395.961,581.472,265.549C638.694,136.858,760.053,31.862,757.837,-108.96C755.545,-254.616,672.503,-390.46,569.526,-493.497C470.314,-592.768,326.32,-616.203,196.82,-670.309C48.995,-732.071,-87.784,-865.532,-244.805,-833.729C-402.315,-801.826,-497.26,-642.443,-589.724,-510.999C-674.884,-389.938,-724.275,-253.346,-754.935,-108.543C-787.475,45.142,-827.073,205.492,-772.631,352.849C-716.516,504.734,-589.461,617.73,-453.895,706.274C-317.618,795.283,-162.461,867.509,0,857.49" fill="#1a846b"></path>
        <path d="M1080 2514.64C1193.175 2522.937 1312.451 2489.573 1398.4940000000001 2415.587 1480.656 2344.938 1494.738 2228.142 1531.663 2126.267 1565.439 2033.079 1599.578 1943.385 1605.509 1844.443 1612.643 1725.437 1631.086 1597.94 1569.452 1495.888 1504.444 1388.249 1390.431 1306.867 1266.84 1283.681 1146.889 1261.1779999999999 1037.824 1343.394 919.677 1373.99 796.527 1405.882 631.767 1363.9859999999999 557.612 1467.349 481.98400000000004 1572.766 574.6700000000001 1718.404 579.577 1848.05 583.422 1949.634 545.357 2052.523 583.331 2146.821 622.095 2243.081 706.774 2309.2309999999998 790.1669999999999 2370.99 878.61 2436.4880000000003 970.24 2506.593 1080 2514.64" fill="#67e1c5"></path>
    </g>
    <defs>
        <mask id="SvgjsMask1078">
            <rect width="1080" height="1920" fill="#ffffff"></rect>
        </mask>
    </defs>
</svg>