<svg xmlns="http://www.w3.org/2000/svg" version="1.1" xmlns:xlink="http://www.w3.org/1999/xlink" xmlns:svgjs="http://svgjs.dev/svgjs" width="1440" height="4000" preserveAspectRatio="none" viewBox="0 0 1440 4000"><g mask="url(&quot;#SvgjsMask1008&quot;)" fill="none"><rect width="1440" height="4000" x="0" y="0" fill="rgba(255, 221, 159, 1)"></rect><path d="M0,1347.999C260.407,1300.972,529.463,1312.495,759.979,1182.55C998.986,1047.818,1194.35,846.664,1321.052,603.304C1452.049,351.694,1500.446,69.555,1486.964,-213.793C1472.474,-518.308,1423.665,-831.277,1241.171,-1075.481C1052.33,-1328.179,767.957,-1495.736,464.513,-1581.987C162.653,-1667.788,-148.739,-1614.06,-457.568,-1558.332C-800.472,-1496.455,-1207.625,-1507.391,-1430.977,-1239.948C-1654.229,-972.624,-1609.782,-571.849,-1570.422,-225.793C-1537.438,64.205,-1323.991,284.994,-1226.251,560.01C-1115.686,871.113,-1237.303,1314.588,-959.542,1493.077C-681.778,1671.568,-324.914,1406.675,0,1347.999" fill="#ffaa0e"></path><path d="M1440 4928.427C1607.071 4887.47 1748.474 4798.102 1895.0720000000001 4708.106 2044.962 4616.089 2214.098 4545.253 2307.215 4396.044 2406.384 4237.137 2445.538 4044.548 2425.398 3858.321 2404.859 3668.4049999999997 2299.569 3505.907 2193.75 3346.872 2074.176 3167.165 1984.4299999999998 2903.442 1770.57 2874.181 1549.545 2843.94 1419.522 3139.295 1208.648 3212.087 1013.427 3279.476 742.744 3122.587 605.049 3276.511 467.98400000000004 3429.7309999999998 627.997 3675.901 610.496 3880.735 594.416 4068.94 472.10699999999997 4240.494 506.82500000000005 4426.167 546.065 4636.025 626.728 4871.767 814.723 4972.951 1002.5219999999999 5074.03 1232.8600000000001 4979.207 1440 4928.427" fill="#ffffff"></path></g><defs><mask id="SvgjsMask1008"><rect width="1440" height="4000" fill="#ffffff"></rect></mask></defs></svg>