<svg xmlns="http://www.w3.org/2000/svg" version="1.1" xmlns:xlink="http://www.w3.org/1999/xlink" xmlns:svgjs="http://svgjs.dev/svgjs" width="1440" height="2560" preserveAspectRatio="none" viewBox="0 0 1440 2560"><g mask="url(&quot;#SvgjsMask1421&quot;)" fill="none"><rect width="1440" height="2560" x="0" y="0" fill="rgba(255, 221, 159, 1)"></rect><path d="M0,1270.228C236.451,1261.654,328.975,948.426,518.42,806.677C689.159,678.924,940.769,662.007,1054.203,481.438C1171.402,294.876,1166.526,54.706,1126.966,-162.033C1088.316,-373.787,971.085,-556.725,834.368,-722.984C694.681,-892.855,544.338,-1073.551,331.587,-1129.28C120.793,-1184.497,-92.314,-1087.508,-299.498,-1019.997C-500.848,-954.387,-696.552,-880.959,-856.485,-742.149C-1034.662,-587.504,-1252.872,-417.507,-1265.131,-181.898C-1277.405,53.994,-1052.727,225.485,-916.888,418.729C-805.945,576.556,-684.522,713.893,-543.16,845.173C-371.216,1004.855,-234.501,1278.732,0,1270.228" fill="#ffaa0e"></path><path d="M1440 3266.967C1576.401 3290.508 1725.547 3259.806 1836.903 3177.592 1945.909 3097.1130000000003 1989.4470000000001 2958.949 2031.613 2830.181 2069.992 2712.979 2098.806 2589.206 2068.739 2469.601 2040.109 2355.713 1940.1970000000001 2281.542 1870.022 2187.384 1793.172 2084.27 1748.585 1953.44 1636.74 1889.964 1512.499 1819.453 1357.374 1772.308 1222.722 1820.02 1089.009 1867.399 1042.508 2027.879 948.271 2133.9139999999998 852.482 2241.696 683.605 2305.572 664.211 2448.458 644.809 2591.406 767.108 2712.499 854.122 2827.561 926.195 2922.865 1026.76 2982.579 1122.351 3054.272 1226.401 3132.309 1311.833 3244.8469999999998 1440 3266.967" fill="#ffffff"></path></g><defs><mask id="SvgjsMask1421"><rect width="1440" height="2560" fill="#ffffff"></rect></mask></defs></svg>