<svg id="visual" viewBox="0 0 675 900" width="675" height="900" xmlns="http://www.w3.org/2000/svg" xmlns:xlink="http://www.w3.org/1999/xlink" version="1.1"><rect x="0" y="0" width="675" height="900" fill="#001220"></rect><defs><linearGradient id="grad1_0" x1="0%" y1="100%" x2="100%" y2="0%"><stop offset="30%" stop-color="#ff9b00" stop-opacity="1"></stop><stop offset="70%" stop-color="#ff9b00" stop-opacity="1"></stop></linearGradient></defs><defs><linearGradient id="grad1_1" x1="0%" y1="100%" x2="100%" y2="0%"><stop offset="30%" stop-color="#ff9b00" stop-opacity="1"></stop><stop offset="70%" stop-color="#e75254" stop-opacity="1"></stop></linearGradient></defs><defs><linearGradient id="grad1_2" x1="0%" y1="100%" x2="100%" y2="0%"><stop offset="30%" stop-color="#97386f" stop-opacity="1"></stop><stop offset="70%" stop-color="#e75254" stop-opacity="1"></stop></linearGradient></defs><defs><linearGradient id="grad1_3" x1="0%" y1="100%" x2="100%" y2="0%"><stop offset="30%" stop-color="#97386f" stop-opacity="1"></stop><stop offset="70%" stop-color="#392d58" stop-opacity="1"></stop></linearGradient></defs><defs><linearGradient id="grad1_4" x1="0%" y1="100%" x2="100%" y2="0%"><stop offset="30%" stop-color="#001220" stop-opacity="1"></stop><stop offset="70%" stop-color="#392d58" stop-opacity="1"></stop></linearGradient></defs><defs><linearGradient id="grad2_0" x1="0%" y1="100%" x2="100%" y2="0%"><stop offset="30%" stop-color="#ff9b00" stop-opacity="1"></stop><stop offset="70%" stop-color="#ff9b00" stop-opacity="1"></stop></linearGradient></defs><defs><linearGradient id="grad2_1" x1="0%" y1="100%" x2="100%" y2="0%"><stop offset="30%" stop-color="#e75254" stop-opacity="1"></stop><stop offset="70%" stop-color="#ff9b00" stop-opacity="1"></stop></linearGradient></defs><defs><linearGradient id="grad2_2" x1="0%" y1="100%" x2="100%" y2="0%"><stop offset="30%" stop-color="#e75254" stop-opacity="1"></stop><stop offset="70%" stop-color="#97386f" stop-opacity="1"></stop></linearGradient></defs><defs><linearGradient id="grad2_3" x1="0%" y1="100%" x2="100%" y2="0%"><stop offset="30%" stop-color="#392d58" stop-opacity="1"></stop><stop offset="70%" stop-color="#97386f" stop-opacity="1"></stop></linearGradient></defs><defs><linearGradient id="grad2_4" x1="0%" y1="100%" x2="100%" y2="0%"><stop offset="30%" stop-color="#392d58" stop-opacity="1"></stop><stop offset="70%" stop-color="#001220" stop-opacity="1"></stop></linearGradient></defs><g transform="translate(675, 900)"><path d="M-544 0C-498.8 -36.7 -453.5 -73.4 -439.5 -117.8C-425.5 -162.1 -442.6 -214 -425.2 -245.5C-407.8 -277 -355.9 -288 -331.6 -331.6C-307.4 -375.2 -310.9 -451.4 -281.3 -487.1C-251.6 -522.9 -188.8 -518.3 -136.4 -509C-84 -499.8 -42 -485.9 0 -472L0 0Z" fill="#15213e"></path><path d="M-435.2 0C-399 -29.4 -362.8 -58.8 -351.6 -94.2C-340.4 -129.7 -354.1 -171.2 -340.2 -196.4C-326.3 -221.6 -284.7 -230.4 -265.3 -265.3C-245.9 -300.2 -248.7 -361.1 -225 -389.7C-201.3 -418.3 -151 -414.6 -109.1 -407.2C-67.2 -399.8 -33.6 -388.7 0 -377.6L0 0Z" fill="#673469"></path><path d="M-326.4 0C-299.3 -22 -272.1 -44.1 -263.7 -70.7C-255.3 -97.3 -265.6 -128.4 -255.1 -147.3C-244.7 -166.2 -213.5 -172.8 -199 -199C-184.4 -225.1 -186.5 -270.8 -168.8 -292.3C-151 -313.7 -113.3 -311 -81.8 -305.4C-50.4 -299.9 -25.2 -291.5 0 -283.2L0 0Z" fill="#c43f67"></path><path d="M-217.6 0C-199.5 -14.7 -181.4 -29.4 -175.8 -47.1C-170.2 -64.8 -177 -85.6 -170.1 -98.2C-163.1 -110.8 -142.3 -115.2 -132.7 -132.7C-123 -150.1 -124.4 -180.5 -112.5 -194.9C-100.6 -209.2 -75.5 -207.3 -54.6 -203.6C-33.6 -199.9 -16.8 -194.4 0 -188.8L0 0Z" fill="#fb7339"></path><path d="M-108.8 0C-99.8 -7.3 -90.7 -14.7 -87.9 -23.6C-85.1 -32.4 -88.5 -42.8 -85 -49.1C-81.6 -55.4 -71.2 -57.6 -66.3 -66.3C-61.5 -75 -62.2 -90.3 -56.3 -97.4C-50.3 -104.6 -37.8 -103.7 -27.3 -101.8C-16.8 -100 -8.4 -97.2 0 -94.4L0 0Z" fill="#ff9b00"></path></g><g transform="translate(0, 0)"><path d="M471 0C454.3 36.3 437.6 72.5 438.5 117.5C439.5 162.5 458 216.2 448.6 259C439.2 301.8 401.8 333.8 367.7 367.7C333.6 401.5 302.8 437.3 264 457.3C225.2 477.3 178.4 481.6 133 496.5C87.7 511.4 43.8 537 0 562.5L0 0Z" fill="#15213e"></path><path d="M376.8 0C363.4 29 350.1 58 350.8 94C351.6 130 366.4 172.9 358.9 207.2C351.3 241.5 321.4 267.1 294.2 294.2C266.9 321.2 242.2 349.8 211.2 365.8C180.2 381.8 142.7 385.3 106.4 397.2C70.2 409.1 35.1 429.6 0 450L0 0Z" fill="#673469"></path><path d="M282.6 0C272.6 21.8 262.6 43.5 263.1 70.5C263.7 97.5 274.8 129.7 269.2 155.4C263.5 181.1 241.1 200.3 220.6 220.6C200.2 240.9 181.7 262.4 158.4 274.4C135.1 286.4 107 288.9 79.8 297.9C52.6 306.8 26.3 322.2 0 337.5L0 0Z" fill="#c43f67"></path><path d="M188.4 0C181.7 14.5 175 29 175.4 47C175.8 65 183.2 86.5 179.4 103.6C175.7 120.7 160.7 133.5 147.1 147.1C133.4 160.6 121.1 174.9 105.6 182.9C90.1 190.9 71.3 192.6 53.2 198.6C35.1 204.6 17.5 214.8 0 225L0 0Z" fill="#fb7339"></path><path d="M94.2 0C90.9 7.3 87.5 14.5 87.7 23.5C87.9 32.5 91.6 43.2 89.7 51.8C87.8 60.4 80.4 66.8 73.5 73.5C66.7 80.3 60.6 87.5 52.8 91.5C45 95.5 35.7 96.3 26.6 99.3C17.5 102.3 8.8 107.4 0 112.5L0 0Z" fill="#ff9b00"></path></g></svg>